Coordinates
version=1
nRows=6
nColumns=34
inDegrees=yes

Units are S.I. units (second, meters, Newtons, ...)
If the header above contains a line with 'inDegrees', this indicates whether rotational values are in degrees (yes) or radians (no).

endheader
time	pelvis_tilt	pelvis_list	pelvis_rotation	pelvis_tx	pelvis_ty	pelvis_tz	hip_flexion_r	hip_adduction_r	hip_rotation_r	knee_angle_r	ankle_angle_r	subtalar_angle_r	mtp_angle_r	hip_flexion_l	hip_adduction_l	hip_rotation_l	knee_angle_l	ankle_angle_l	subtalar_angle_l	mtp_angle_l	lumbar_extension	lumbar_bending	lumbar_rotation	arm_flex_r	arm_add_r	arm_rot_r	elbow_flex_r	pro_sup_r	arm_flex_l	arm_add_l	arm_rot_l	elbow_flex_l	pro_sup_l
     19.41666670	      6.93298999	      5.01589202	     -9.98045238	      1.66687804	      0.94114570	     -0.55662891	    -11.58704577	     -5.03235288	     -0.65743225	     51.29090973	     25.60974731	    -14.79696595	      0.00000000	     33.92712096	      1.82900081	     -6.76609020	     25.82402586	     -2.45525222	    -14.31985142	      0.00000000	    -17.84613918	     -6.86323505	      3.30912725	     -6.92970999	     -9.24847978	     15.14942395	    130.52968384	     87.85333541	    -19.81072777	     -7.30223218	      0.83735682	     36.94908856	     54.70364130
     19.42500000	      6.43978081	      5.55327443	     -9.78465966	      1.66283381	      0.94705966	     -0.55620571	    -11.14034819	     -5.43350122	     -1.24588122	     50.38824762	     23.51115541	    -16.58040541	      0.00000000	     33.88948371	      2.46488144	     -6.88349423	     26.10583674	     -2.82626205	    -15.31222564	      0.00000000	    -17.12107868	     -7.30097882	      2.70730397	     -7.70289618	     -8.95871112	     14.92066143	    130.07997474	     87.97987481	    -20.17581541	     -7.50879599	      0.73449147	     36.46519383	     54.63303253
     19.43333330	      6.22270624	      5.71332191	    -10.00856220	      1.65724084	      0.94905934	     -0.55626776	    -10.79890474	     -5.64355415	     -1.45395953	     49.78311552	     22.75221621	    -16.61960834	      0.00000000	     33.50833723	      2.66221260	     -7.11206935	     26.41879764	     -1.92285180	    -15.86039334	      0.00000000	    -16.87925145	     -7.40764916	      2.39567258	     -8.14044572	     -9.09102891	     14.92433716	    129.95595264	     88.00934095	    -20.38559871	     -7.44134012	      0.74763183	     36.30273619	     54.61915909
     19.44166670	      5.63582981	      6.22088686	     -9.84824680	      1.65250780	      0.95522443	     -0.55487870	     -9.90089878	     -5.90142257	     -1.63382167	     49.26043375	     20.64172509	    -17.60374991	      0.00000000	     33.39903673	      3.20957399	     -7.29821579	     26.79674733	     -2.39732477	    -16.11604195	      0.00000000	    -15.84634083	     -7.86804738	      1.79459653	     -8.54927346	     -8.75161579	     14.87956988	    128.56397746	     88.18563313	    -20.73899184	     -7.53943408	      0.56961970	     35.47998946	     54.49087217
     19.45000000	      5.47751453	      6.68460172	     -9.52924426	      1.64928657	      0.96322493	     -0.55426173	     -9.80743857	     -6.30112683	     -2.18886813	     48.22108375	     19.03237752	    -17.45385951	      0.00000000	     32.71701620	      3.74768247	     -7.95963263	     27.03415981	     -2.95327865	    -16.55273864	      0.00000000	    -15.41805654	     -8.22256191	      1.49452855	     -9.33391736	     -8.62756960	     15.02012338	    127.94798954	     88.24289913	    -20.72614779	     -7.79251080	      0.48981167	     35.11700908	     54.44526192
     19.45833330	      5.61701722	      6.94352746	     -9.42091698	      1.64137336	      0.97250686	     -0.55452736	     -9.68691584	     -6.58254077	     -2.60636157	     47.39949498	     16.93501950	    -18.46013825	      0.00000000	     31.67572587	      4.19886178	     -8.48853942	     27.23992114	     -3.79342745	    -17.78984818	      0.00000000	    -15.54977641	     -8.46278588	      1.29067387	     -9.37793403	     -8.39012697	     14.82977678	    126.47525263	     88.33602403	    -20.32299782	     -7.92190642	      0.47593795	     34.18976768	     54.37238345
